<svg width="1114" height="52" xmlns="http://www.w3.org/2000/svg" preserveAspectRatio="xMinYMin meet">
 <defs>
  <linearGradient gradientTransform="rotate(0) scale(1 1)" y2="0%" y1="0%" x2="100%" x1="0%" spreadMethod="pad" id="gradient1" gradientUnits="objectBoundingBox">
   <stop stop-color=" rgb(0, 0, 0)" offset="0.06364"/>
   <stop stop-color=" rgb(255, 255, 0)" offset="0.63636"/>
   <stop stop-color="rgb(255,0,0)" offset="0.84727"/>
  </linearGradient>
  <pattern height="3.5" width="69.76" y="0" x="0" patternUnits="userSpaceOnUse" patternContentUnits="userSpaceOnUse" viewBox="78.45232391357422 149.68087768554688 1116.1400146484375 55.957298278808594" id="pattern2">
   <rect id="svg_1" stroke=" none" fill="url(#pattern1)" height="55.9573" width="1116.14001" y="149.68088" x="78.45232"/>
  </pattern>
  <pattern height="3.5" width="69.96" y="0" x="0" patternUnits="userSpaceOnUse" patternContentUnits="userSpaceOnUse" viewBox="0 0 1119.3299560546875 55.95736312866211" id="pattern3">
   <rect id="svg_2" stroke=" none" fill="url(#gradient1)" transform="matrix(1,0,0,1,-68.8827,-36.972) " height="55.9573" width="1116.14001" y="36.97201" x="68.88268"/>
   <rect id="svg_3" stroke=" none" fill="url(#pattern1)" transform="matrix(1,0,0,1,-68.8827,-36.972) " height="55.9573" width="1116.14001" y="36.97208" x="72.07258"/>
  </pattern>
  <pattern height="3.5" width="69.76" y="0" x="0" patternUnits="userSpaceOnUse" patternContentUnits="userSpaceOnUse" viewBox="3.1899032592773438 0.000064849853515625 1116.1400146484375 55.957298278808594" id="pattern4">
   <rect id="svg_4" stroke=" none" fill="url(#pattern1)" transform="matrix(1,0,0,1,-68.8827,-36.972) " height="55.9573" width="1116.14001" y="36.97208" x="72.07258"/>
  </pattern>
  <pattern y="0" x="0" width="10" viewBox="0 0 10 10" patternUnits="userSpaceOnUse" patternTransform="rotate(90) scale(1 1)" id="pattern1" height="30">
   <line id="svg_5" stroke=" white" y2="5" y1="5" x2="10" x1="0"/>
  </pattern>
 </defs>
 <g>
  <title>background</title>
  <rect fill="none" id="canvas_background" height="842" width="1302" y="-1" x="-1"/>
 </g>
 <g>
  <title>Layer 1</title>
  <rect fill="none" height="840" width="1300" y="0" x="0" id="svgEditorBackground"/>
  <rect stroke=" none" fill="url(#gradient1)" transform="matrix(1 0 0 1 -68.8827 -36.972)" height="55.9573" width="1116.14001" id="e2_rectangle" y="36.97201" x="68.88268"/>
  <rect stroke=" none" fill="url(#pattern1)" transform="matrix(1 0 0 1 -68.8827 -36.972)" height="55.9573" width="1116.14001" id="e1_rectangle" y="36.97208" x="80.57891"/>
 </g>
</svg>